<?xml version="1.0" encoding="UTF-8"?>
<svg width="28.9636499px" height="54px" viewBox="0 0 28.9636499 54" version="1.1" xmlns="http://www.w3.org/2000/svg" xmlns:xlink="http://www.w3.org/1999/xlink">
    <title>Fill 1</title>
    <g id="Page-1" stroke="none" stroke-width="1" fill="none" fill-rule="evenodd">
        <g id="Mobile-main-page" transform="translate(-338.310932, -1314.000000)" fill="#007EB9">
            <g id="main" transform="translate(-18.000000, 373.000000)">
                <g id="best-seller" transform="translate(0.000000, 682.000000)">
                    <path d="M379.383666,286 L356.985932,262.681793 C356.53593,262.272702 356.310932,261.771582 356.310932,261.178406 C356.310932,260.585205 356.53593,260.063637 356.985932,259.613623 C357.395025,259.204532 357.896157,259 358.489342,259 C359.082527,259 359.583658,259.204532 359.992753,259.613623 L384.599589,284.465909 C385.049576,284.875 385.274582,285.386357 385.274582,286 C385.274582,286.613633 385.049576,287.124992 384.599589,287.534083 L359.992753,312.386363 C359.583658,312.795457 359.082527,313 358.489342,313 C357.896157,313 357.395025,312.795457 356.985932,312.386363 C356.53593,311.97727 356.310932,311.465912 356.310932,310.852272 C356.310932,310.238633 356.53593,309.727275 356.985932,309.318181 L379.383666,286 Z" id="Fill-1"></path>
                </g>
            </g>
        </g>
    </g>
</svg>