<?xml version="1.0" encoding="UTF-8"?>
<svg width="28.9464879px" height="54px" viewBox="0 0 28.9464879 54" version="1.1" xmlns="http://www.w3.org/2000/svg" xmlns:xlink="http://www.w3.org/1999/xlink">
    <title>Fill 1</title>
    <g id="Page-1" stroke="none" stroke-width="1" fill="none" fill-rule="evenodd">
        <g id="Mobile-main-page" transform="translate(-8.000000, -1313.939620)" fill="#007EB9">
            <g id="main" transform="translate(-18.000000, 373.000000)">
                <g id="best-seller" transform="translate(0.000000, 682.000000)">
                    <path d="M54.2718942,309.227986 C54.7216146,309.636837 54.9464879,310.147892 54.9464879,310.761168 C54.9464879,311.374444 54.7216146,311.885499 54.2718942,312.29435 C53.8630195,312.703201 53.3621963,312.917844 52.7693619,312.938287 C52.1765301,312.958729 51.6756938,312.744086 51.2668452,312.29435 L26.6746002,287.456796 C26.2248644,287.047947 26,286.547111 26,285.954269 C26,285.361445 26.2248644,284.84016 26.6746002,284.390439 L51.2668452,259.55288 C51.6756938,259.144031 52.1765301,258.93962 52.7693619,258.93962 C53.3621963,258.93962 53.8630195,259.144031 54.2718942,259.55288 C54.7216146,260.002626 54.9464879,260.523885 54.9464879,261.116736 C54.9464879,261.709559 54.7216146,262.210383 54.2718942,262.619231 L31.8874212,285.923628 L54.2718942,309.227986 Z" id="Fill-1"></path>
                </g>
            </g>
        </g>
    </g>
</svg>