<?xml version="1.0" encoding="UTF-8"?>
<svg width="32px" height="23px" viewBox="0 0 32 23" version="1.1" xmlns="http://www.w3.org/2000/svg" xmlns:xlink="http://www.w3.org/1999/xlink">
    <title>Fill 1</title>
    <g id="Page-1" stroke="none" stroke-width="1" fill="none" fill-rule="evenodd">
        <g id="header" transform="translate(-308.000000, -78.000000)" fill="#FFFFFF">
            <path d="M338.659208,88 L309.340782,88 C308.715081,88 308.335196,88.196076 308.201117,88.5882347 C308.067038,88.9803934 308,89.4509768 308,90 C308,90.5490232 308.067038,91.0196066 308.201117,91.4117653 C308.335196,91.803924 308.715081,92 309.340782,92 L338.659208,92 C339.284916,92 339.664807,91.803924 339.79888,91.4117653 C339.932954,91.0196066 340,90.5490232 340,90 C340,89.4509768 339.932954,88.9803934 339.79888,88.5882347 C339.664807,88.196076 339.284916,88 338.659208,88 Z M338.659208,97 L309.340782,97 C308.715081,97 308.335196,97.1960759 308.201117,97.5882361 C308.067038,97.9803947 308,98.4509779 308,99 C308,99.5490223 308.067038,100.019606 308.201117,100.411765 C308.335196,100.803924 308.715081,101 309.340782,101 L338.659208,101 C339.284916,101 339.664807,100.803924 339.79888,100.411765 C339.932954,100.019606 340,99.5490223 340,99 C340,98.4509779 339.932954,97.9803947 339.79888,97.5882361 C339.664807,97.1960759 339.284916,97 338.659208,97 Z M309.340782,82 L338.659208,82 C339.284916,82 339.664807,81.8058277 339.79888,81.4174764 C339.932954,81.0291186 340,80.5501582 340,79.9805788 C340,79.4368976 339.932954,78.9708781 339.79888,78.5825203 C339.664807,78.1941789 339.284916,78 338.659208,78 L309.340782,78 C308.715081,78 308.335196,78.1941789 308.201117,78.5825203 C308.067038,78.9708781 308,79.4368976 308,79.9805788 C308,80.5501582 308.067038,81.0291186 308.201117,81.4174764 C308.335196,81.8058277 308.715081,82 309.340782,82 Z" id="Fill-1"></path>
        </g>
    </g>
</svg>