<?xml version="1.0" encoding="UTF-8"?>
<svg width="21px" height="21px" viewBox="0 0 21 21" version="1.1" xmlns="http://www.w3.org/2000/svg" xmlns:xlink="http://www.w3.org/1999/xlink">
    <title>Fill 1</title>
    <g id="Page-1" stroke="none" stroke-width="1" fill="none" fill-rule="evenodd">
        <g id="desktop-product-page-3" transform="translate(-990.000000, -2738.000000)" fill="#FFFFFF">
            <g id="footer" transform="translate(0.000000, 2321.000000)">
                <g id="contact" transform="translate(925.000000, 368.000000)">
                    <path d="M84.82422,49 L66.175781,49 C65.8476546,49 65.5696626,49.11393 65.3417969,49.3418 C65.1139312,49.56966 65,49.84765 65,50.17578 L65,50.17578 L65,68.851562 C65,69.1614599 65.1139312,69.4303374 65.3417969,69.6582031 C65.5696626,69.8860688 65.8476546,70 66.175781,70 L66.175781,70 L76.21094,70 L76.21094,61.878906 L73.476562,61.878906 L73.476562,58.70703 L76.21094,58.70703 L76.21094,56.38281 C76.21094,55.01562 76.58919,53.97201 77.3457,53.25195 C78.10222,52.5319 79.09114,52.17188 80.3125,52.17188 C80.71354,52.17188 81.11914,52.18555 81.5293,52.21289 C81.93946,52.24023 82.34505,52.27214 82.74609,52.30859 L82.74609,55.125 L81.07812,55.125 C80.42187,55.125 79.99349,55.27083 79.79297,55.5625 C79.59245,55.85417 79.49219,56.22786 79.49219,56.68359 L79.49219,58.70703 L82.63672,58.70703 L82.22656,61.878906 L79.49219,61.878906 L79.49219,70 L84.82422,70 C85.15235,70 85.43034,69.8860688 85.6582,69.6582031 C85.88607,69.4303374 86,69.1614599 86,68.851562 L86,68.851562 L86,50.17578 C86,49.84765 85.88607,49.56966 85.6582,49.3418 C85.43034,49.11393 85.15235,49 84.82422,49 L84.82422,49 Z" id="Fill-1"></path>
                </g>
            </g>
        </g>
    </g>
</svg>