<?xml version="1.0" encoding="UTF-8"?>
<svg width="21px" height="21.05469px" viewBox="0 0 21 21.05469" version="1.1" xmlns="http://www.w3.org/2000/svg" xmlns:xlink="http://www.w3.org/1999/xlink">
    <title>Fill 1</title>
    <g id="Page-1" stroke="none" stroke-width="1" fill="none" fill-rule="evenodd">
        <g id="desktop-product-page-3" transform="translate(-958.000000, -2737.000000)" fill="#FFFFFF">
            <g id="footer" transform="translate(0.000000, 2321.000000)">
                <g id="contact" transform="translate(925.000000, 368.000000)">
                    <path d="M43.5,53.11328 C42.7526,53.11328 42.050785,53.25 41.394531,53.52344 C40.738278,53.81511 40.168622,54.20703 39.685547,54.69922 C39.202472,55.19141 38.815106,55.75651 38.523438,56.39453 C38.249999,57.05079 38.113281,57.7526 38.113281,58.5 C38.113281,59.247402 38.249999,59.949218 38.523438,60.605471 C38.815106,61.261725 39.202472,61.835938 39.685547,62.328128 C40.168622,62.820317 40.738278,63.203126 41.394531,63.476565 C42.050785,63.768233 42.7526,63.914065 43.5,63.914065 L43.5,63.914065 C44.2474,63.914065 44.94922,63.768233 45.60547,63.476565 C46.26172,63.203126 46.83138,62.820317 47.31445,62.328128 C47.79753,61.835938 48.18489,61.261725 48.47656,60.605471 C48.75,59.949218 48.88672,59.247402 48.88672,58.5 C48.88672,57.7526 48.75,57.05079 48.47656,56.39453 C48.18489,55.75651 47.79753,55.19141 47.31445,54.69922 C46.83138,54.20703 46.26172,53.81511 45.60547,53.52344 C44.94922,53.25 44.2474,53.11328 43.5,53.11328 L43.5,53.11328 Z M43.5,62 C42.533849,62 41.708988,61.658209 41.025391,60.974612 C40.341793,60.291015 40,59.466153 40,58.5 C40,57.53385 40.341793,56.70899 41.025391,56.02539 C41.708988,55.3418 42.533849,55 43.5,55 L43.5,55 C44.46615,55 45.29101,55.3418 45.97461,56.02539 C46.65821,56.70899 47,57.53385 47,58.5 C47,59.466153 46.65821,60.291015 45.97461,60.974612 C45.29101,61.658209 44.46615,62 43.5,62 L43.5,62 Z M50.36328,52.92188 C50.36328,53.26823 50.24024,53.56445 49.99414,53.81055 C49.74805,54.05664 49.45182,54.17969 49.10547,54.17969 C48.75911,54.17969 48.46289,54.05664 48.2168,53.81055 C47.9707,53.56445 47.84766,53.26823 47.84766,52.92188 C47.84766,52.57552 47.9707,52.2793 48.2168,52.03321 C48.46289,51.78711 48.75911,51.66407 49.10547,51.66407 C49.45182,51.66407 49.74805,51.78711 49.99414,52.03321 C50.24024,52.2793 50.36328,52.57552 50.36328,52.92188 Z M53.45312,51.63672 C53.17969,50.92578 52.77865,50.30599 52.25,49.77735 C51.72135,49.2487 51.11068,48.84766 50.41797,48.57422 L50.39062,48.57422 C50.00781,48.42839 49.60222,48.3099 49.17383,48.21875 C48.74544,48.12761 48.30339,48.08203 47.84766,48.08203 L47.82031,48.08203 C47.27343,48.04558 46.77214,48.02279 46.31641,48.01367 C45.86067,48.00456 44.92188,48 43.5,48 C42.078118,48 41.139325,48.00456 40.683594,48.01367 C40.227862,48.02279 39.726565,48.04558 39.179688,48.08203 C38.723956,48.08203 38.277346,48.12761 37.839844,48.21875 C37.402342,48.3099 36.983075,48.42839 36.582031,48.57422 L36.636719,48.57422 C35.925778,48.84766 35.305992,49.2487 34.777344,49.77735 C34.248695,50.30599 33.8476576,50.91667 33.5742188,51.60938 L33.546875,51.63672 C33.4010409,52.01954 33.2871098,52.42513 33.2050781,52.85352 C33.1230465,53.28191 33.0729168,53.72396 33.0546875,54.17969 L33.0546875,54.17969 C33.0364582,54.7448 33.0227865,55.25065 33.0136719,55.69727 C33.0045572,56.14388 33,57.07812 33,58.5 C33,59.940114 33.0045572,60.883464 33.0136719,61.330081 C33.0227865,61.776697 33.0364582,62.282552 33.0546875,62.847659 C33.0729168,63.285161 33.1230465,63.718099 33.2050781,64.146487 C33.2871098,64.574874 33.4010409,64.989584 33.546875,65.390628 C33.8385431,66.101569 34.248695,66.721354 34.777344,67.250002 C35.305992,67.778651 35.907549,68.1796886 36.582031,68.4531275 L36.636719,68.4531275 C37.001304,68.6171908 37.397784,68.7447937 37.826172,68.83594 C38.254559,68.9270863 38.696612,68.9817732 39.152344,69 L39.179688,69 C39.744794,69.0182318 40.250649,69.0319035 40.697266,69.0410181 C41.143882,69.0501328 42.078118,69.05469 43.5,69.05469 C44.92188,69.05469 45.86067,69.0501328 46.31641,69.0410181 C46.77214,69.0319035 47.28255,69.0182318 47.84766,69 C48.30339,68.9817732 48.75,68.9316435 49.1875,68.8496119 C49.625,68.7675802 50.04427,68.6445346 50.44531,68.4804712 L50.39062,68.507815 C51.10157,68.2161469 51.72135,67.810552 52.25,67.291018 C52.77865,66.771484 53.17969,66.165371 53.45312,65.472659 L53.45312,65.417971 C53.61719,65.016928 53.74023,64.602218 53.82227,64.173831 C53.9043,63.745443 53.94531,63.312505 53.94531,62.875002 C53.96354,62.309896 53.97721,61.804041 53.98633,61.357424 C53.99544,60.910808 54,59.976572 54,58.55469 C54,57.13281 54,56.19402 54,55.73828 C54,55.28255 53.98177,54.78126 53.94531,54.23438 C53.94531,53.76042 53.89974,53.30013 53.80859,52.85352 C53.71745,52.4069 53.58984,51.98308 53.42578,51.58203 L53.45312,51.63672 Z M52.03125,62.765628 C52.03125,63.111983 51.99935,63.453777 51.93555,63.791018 C51.87174,64.128259 51.77604,64.451824 51.64844,64.761721 L51.67578,64.734378 C51.49349,65.190109 51.22917,65.591147 50.88281,65.937502 C50.53646,66.283858 50.14453,66.539064 49.70703,66.703128 L49.67969,66.730471 C49.38802,66.839847 49.07813,66.926434 48.75,66.990237 C48.42187,67.054039 48.08464,67.08594 47.73828,67.08594 L47.73828,67.08594 C47.17317,67.104169 46.67643,67.117841 46.24805,67.126956 C45.81966,67.13607 44.89454,67.140628 43.47266,67.140628 C42.050774,67.140628 41.125653,67.140628 40.697266,67.140628 C40.268878,67.140628 39.772138,67.122399 39.207031,67.08594 C38.842446,67.08594 38.496095,67.054039 38.167969,66.990237 C37.839842,66.926434 37.520835,66.830732 37.210938,66.703128 L37.238281,66.730471 C36.78255,66.548179 36.381512,66.283858 36.035156,65.937502 C35.6888,65.591147 35.42448,65.199223 35.242188,64.761721 L35.242188,64.734378 C35.132812,64.442709 35.046224,64.132817 34.982422,63.80469 C34.918619,63.476563 34.886719,63.139327 34.886719,62.792971 L34.886719,62.765628 C34.85026,62.21875 34.832031,61.726567 34.832031,61.289065 C34.832031,60.851563 34.832031,59.930999 34.832031,58.52735 C34.832031,57.10546 34.832031,56.18034 34.832031,55.75196 C34.832031,55.32357 34.85026,54.82683 34.886719,54.26172 C34.886719,53.89714 34.918619,53.54623 34.982422,53.20899 C35.046224,52.87175 35.141926,52.54818 35.269531,52.23828 L35.242188,52.29297 C35.42448,51.81901 35.6888,51.40886 36.035156,51.0625 C36.381512,50.71615 36.78255,50.46094 37.238281,50.29688 C37.529949,50.1875 37.839842,50.10091 38.167969,50.03711 C38.496095,49.97331 38.842446,49.93229 39.207031,49.91407 L39.207031,49.91407 C39.753909,49.89584 40.246092,49.88216 40.683594,49.87305 C41.121096,49.86393 42.050774,49.85938 43.47266,49.85938 C44.89454,49.85938 45.81966,49.86393 46.24805,49.87305 C46.67643,49.88216 47.17317,49.89584 47.73828,49.91407 C48.08464,49.93229 48.42187,49.97331 48.75,50.03711 C49.07813,50.10091 49.39713,50.1875 49.70703,50.29688 L49.67969,50.29688 C50.13542,50.47917 50.53646,50.73893 50.88281,51.07617 C51.22917,51.41342 51.49349,51.8099 51.67578,52.26563 L51.67578,52.29297 C51.78516,52.56641 51.87174,52.87175 51.93555,53.20899 C51.99935,53.54623 52.03125,53.88802 52.03125,54.23438 L52.03125,54.23438 C52.04948,54.78126 52.06315,55.27344 52.07227,55.71094 C52.08138,56.14844 52.08594,57.07812 52.08594,58.5 C52.08594,59.921885 52.08594,60.847006 52.08594,61.275393 C52.08594,61.703781 52.07682,62.200521 52.05859,62.765628 L52.03125,62.765628 Z" id="Fill-1"></path>
                </g>
            </g>
        </g>
    </g>
</svg>