<?xml version="1.0" encoding="UTF-8"?>
<svg width="21px" height="21px" viewBox="0 0 21 21" version="1.1" xmlns="http://www.w3.org/2000/svg" xmlns:xlink="http://www.w3.org/1999/xlink">
    <title>Fill 1</title>
    <g id="Page-1" stroke="none" stroke-width="1" fill="none" fill-rule="evenodd">
        <g id="desktop-product-page-3" transform="translate(-925.000000, -2737.000000)" fill="#FFFFFF">
            <g id="footer" transform="translate(0.000000, 2321.000000)">
                <g id="contact" transform="translate(925.000000, 368.000000)">
                    <path d="M19.82422,48 L1.175781,48 C0.8476546,48 0.5696626,48.11393 0.3417969,48.3418 C0.1139312,48.56966 0,48.84765 0,49.17578 L0,49.17578 L0,67.851562 C0,68.1614599 0.1139312,68.4303374 0.3417969,68.6582031 C0.5696626,68.8860688 0.8476546,69 1.175781,69 L1.175781,69 L19.82422,69 C20.15235,69 20.43034,68.8860688 20.6582,68.6582031 C20.88607,68.4303374 21,68.1614599 21,67.851562 L21,67.851562 L21,49.17578 C21,48.84765 20.88607,48.56966 20.6582,48.3418 C20.43034,48.11393 20.15235,48 19.82422,48 Z M6.234375,65.910156 L3.117188,65.910156 L3.117188,55.875 L6.234375,55.875 L6.234375,65.910156 Z M4.675781,54.50781 C4.165362,54.50781 3.736981,54.33008 3.390625,53.97461 C3.044269,53.61914 2.871094,53.19531 2.871094,52.70312 C2.871094,52.21094 3.044269,51.78711 3.390625,51.43164 C3.736981,51.07617 4.165362,50.89844 4.675781,50.89844 L4.675781,50.89844 C5.167971,50.89844 5.591795,51.07617 5.947266,51.43164 C6.302736,51.78711 6.480469,52.21094 6.480469,52.70312 C6.480469,53.19531 6.302736,53.61914 5.947266,53.97461 C5.591795,54.33008 5.167971,54.50781 4.675781,54.50781 Z M17.88281,65.910156 L14.79297,65.910156 L14.79297,61.015625 C14.79297,60.432289 14.72005,59.844404 14.57422,59.251953 C14.42838,58.6595 13.95443,58.36328 13.15234,58.36328 C12.35026,58.36328 11.83984,58.63216 11.62109,59.169922 C11.40234,59.707685 11.29297,60.29557 11.29297,60.933594 L11.29297,65.910156 L8.175781,65.910156 L8.175781,55.875 L11.15625,55.875 L11.15625,57.24219 L11.21094,57.24219 C11.41146,56.85937 11.76237,56.49479 12.26367,56.14844 C12.76498,55.80208 13.39843,55.62891 14.16406,55.62891 C15.73178,55.62891 16.74349,56.08919 17.19922,57.00977 C17.65495,57.93034 17.88281,59.065097 17.88281,60.414062 L17.88281,65.910156 Z" id="Fill-1"></path>
                </g>
            </g>
        </g>
    </g>
</svg>